<svg fill="none" height="40" viewBox="0 0 40 40" width="40" xmlns="http://www.w3.org/2000/svg"><path clip-rule="evenodd" d="m22.605 40h-19.27167c-1.84 0-3.33333-1.4933-3.33333-3.3333v-33.33337c0-1.84 1.49333-3.33333 3.33333-3.33333h23.33337c1.84 0 3.3333 1.49333 3.3333 3.33333v6.66667h-3.3333v-5h-23.33337v28.3333h18.33337v4.1667c0 .8733.3033 1.9583.9383 2.5zm14.895-28.3333c1.38 0 2.5 1.12 2.5 2.5v23.3333c0 1.3767-1.1183 2.5-2.5 2.5h-11.6667c-1.3816 0-2.5-1.125-2.5-2.5v-23.3333c0-1.3784 1.1217-2.5 2.5-2.5zm-22.5 23.3333c.92 0 1.6667.7467 1.6667 1.6667s-.7467 1.6666-1.6667 1.6666-1.6667-.7466-1.6667-1.6666.7467-1.6667 1.6667-1.6667zm16.6667 3.3333c-.9217 0-1.6667-.7466-1.6667-1.6666s.745-1.6667 1.6667-1.6667c.92 0 1.665.7467 1.665 1.6667s-.745 1.6666-1.665 1.6666zm6.6666-5v-16.7066h-13.3333v16.7066zm-5.8333-18.3333c.4583 0 .8333-.3733.8333-.8333s-.375-.8334-.8333-.8334h-1.6667c-.46 0-.8333.3734-.8333.8334s.3733.8333.8333.8333z" fill="#4d13d1" fill-rule="evenodd"/></svg>