<svg fill="none" height="40" viewBox="0 0 40 40" width="40" xmlns="http://www.w3.org/2000/svg"><path d="m21.6666 20-1.1466-6.6667h-1.015l-1.1717 6.6667c-.9933.5783-1.6667 1.64-1.6667 2.8717 0 1.84 1.4934 3.3333 3.3334 3.3333s3.3333-1.4933 3.3333-3.3333c0-1.2317-.6733-2.2934-1.6667-2.8717zm-1.6666-13.33333c-9.2034 0-16.66669 7.46163-16.66669 16.66663s7.46329 16.6667 16.66669 16.6667c9.2033 0 16.6666-7.4617 16.6666-16.6667s-7.4633-16.66663-16.6666-16.66663zm0 30.00003c-7.3517 0-13.33335-5.9817-13.33335-13.3334 0-7.3516 5.98165-13.3333 13.33335-13.3333 7.3516 0 13.3333 5.9817 13.3333 13.3333 0 7.3517-5.9817 13.3334-13.3333 13.3334zm-3.3334-33.0317v-3.635h6.6667v3.635c-2.3967-.405-4.32-.39667-6.6667 0zm15.2984 3.71 2.345-2.345 2.3566 2.35667-2.2016 2.20166c-.77-.80666-1.6067-1.54333-2.5-2.21333zm-21.1317 15.9883c0 .46-.3733.8334-.83332.8334-.46 0-.83333-.3734-.83333-.8334s.37333-.8333.83333-.8333c.46002 0 .83332.3733.83332.8333zm20 0c0 .46-.3733.8334-.8333.8334s-.8334-.3734-.8334-.8334.3734-.8333.8334-.8333.8333.3733.8333.8333zm-10 10c0 .46-.3733.8334-.8333.8334s-.8334-.3734-.8334-.8334.3734-.8333.8334-.8333.8333.3733.8333.8333zm-6.6667-3.3333c0 .46-.3733.8333-.8333.8333s-.8333-.3733-.8333-.8333.3733-.8333.8333-.8333.8333.3733.8333.8333zm13.3334 0c0 .46-.3734.8333-.8334.8333s-.8333-.3733-.8333-.8333.3733-.8333.8333-.8333.8334.3733.8334.8333zm-13.3334-15c0 .46-.3733.8333-.8333.8333s-.8333-.3733-.8333-.8333.3733-.8333.8333-.8333.8333.3733.8333.8333zm13.3334 0c0 .46-.3734.8333-.8334.8333s-.8333-.3733-.8333-.8333.3733-.8333.8333-.8333.8334.3733.8334.8333z" fill="#4d13d1"/></svg>